<?xml version="1.0" encoding="UTF-8" standalone="no"?>
<!-- Created with Inkscape (http://www.inkscape.org/) -->

<svg
   width="46.842842mm"
   height="13.63167mm"
   viewBox="0 0 46.842842 13.63167"
   version="1.1"
   id="svg5"
   xmlns="http://www.w3.org/2000/svg"
   xmlns:svg="http://www.w3.org/2000/svg">
  <defs
     id="defs2" />
  <g
     id="layer1"
     transform="translate(-50.782645,-112.8365)">
    <g
       aria-label="Fuzztival"
       id="text790"
       style="font-size:14.1111px;font-family:Roboto;-inkscape-font-specification:Roboto;fill:#000000;fill-opacity:0.5;stroke-linecap:square;paint-order:stroke fill markers">
      <path
         d="m 58.336315,112.8365 c -1.290107,0.20567 -2.580214,0.28046 -3.926413,0.28046 -1.177923,0 -2.430636,-0.0561 -3.627257,-0.16828 0.523522,1.68275 0.729191,3.87032 0.729191,6.18878 0,2.43063 -0.224366,4.99215 -0.59831,7.16103 1.383593,-0.11219 3.066341,-0.14958 4.618208,-0.16828 -0.72919,-1.58926 -1.215318,-3.12243 -1.308804,-4.87997 0.598311,-0.0561 1.458382,-0.0561 1.981904,-0.14958 1.121832,-0.22436 1.346198,-1.02834 1.346198,-1.3275 0,-0.20567 -0.09349,-0.24306 -0.430035,-0.24306 -0.617008,0 -1.664051,0.13088 -2.841975,0.28046 0.07479,-2.58022 0.710494,-4.09469 1.40229,-4.09469 0.411339,0 0.729191,0.57961 0.729191,1.38359 0,0.50483 -0.13088,1.25271 -0.486127,1.86972 0.07479,0.0187 0.168275,0.0187 0.243063,0.0187 1.851023,0 2.411939,-2.0006 2.411939,-3.92641 0,-0.86007 -0.112183,-1.68275 -0.243063,-2.22497 z"
         style="font-size:18.6972px;fill:#000000;fill-opacity:0.5"
         id="path976" />
      <path
         d="m 58.7212,118.94695 c 0.409222,0.39512 0.550333,0.97367 0.550333,1.67923 0,1.08655 -0.338666,2.45533 -0.338666,3.48544 0,1.04422 0.338666,2.22955 1.665109,2.22955 0.762,0 1.199444,-0.39511 1.594555,-0.97366 0.338666,0.73377 0.733777,1.01599 1.114777,1.01599 0.691444,0 1.298221,-0.90311 1.298221,-1.86266 0,-0.254 -0.04233,-0.53622 -0.127,-0.77611 -0.141111,0.22578 -0.310444,0.35278 -0.493889,0.35278 -0.239888,0 -0.409221,-0.26811 -0.409221,-0.762 0,-0.86078 0.493888,-2.14489 0.493888,-3.06211 0,-1.143 -0.790222,-1.60867 -1.735665,-1.60867 -0.268111,0 -0.550333,0.0423 -0.804333,0.127 0.310444,0.35278 0.522111,0.97367 0.522111,2.032 0,1.60867 -0.479778,3.45722 -0.874888,3.45722 -0.127,0 -0.268111,-0.22578 -0.268111,-0.56444 0,-0.762 0.634999,-2.667 0.634999,-3.66889 0,-1.016 -0.663222,-1.38289 -1.608665,-1.38289 -0.479778,0 -0.860777,0.0988 -1.213555,0.28222 z"
         style="font-family:'Heavy Heap';-inkscape-font-specification:'Heavy Heap';fill:#000000;fill-opacity:0.5"
         id="path978" />
      <path
         d="m 69.600866,118.66473 c -0.761999,0.16934 -1.467554,0.23989 -2.201332,0.23989 -0.677332,0 -1.382887,-0.0564 -2.088442,-0.16933 -0.09878,0.39511 -0.197556,0.91722 -0.197556,1.48166 0,0.83256 0.183445,1.69334 0.691444,2.06022 0.09878,-0.635 0.409222,-1.56633 0.973666,-1.56633 0.183444,0 0.310444,0.0847 0.310444,0.35278 0,0.42333 -0.338666,0.889 -1.100666,2.11666 -0.564444,0.90312 -0.945443,1.56634 -1.058332,3.09034 0.437444,-0.0847 0.90311,-0.127 1.255888,-0.127 0.77611,0 1.509888,0.19755 2.18722,0.19755 0.832555,0 1.580444,-0.32455 1.580444,-1.73566 0,-0.97367 -0.352778,-1.49578 -0.931333,-1.778 0,0.59266 -0.211666,1.72155 -0.761999,1.72155 -0.239889,0 -0.409222,-0.21167 -0.409222,-0.635 0,-1.38289 1.749776,-3.14677 1.749776,-5.24933 z"
         style="font-family:'Heavy Heap';-inkscape-font-specification:'Heavy Heap';fill:#000000;fill-opacity:0.5"
         id="path980" />
      <path
         d="m 74.807853,118.66473 c -0.761999,0.16934 -1.467554,0.23989 -2.201331,0.23989 -0.677333,0 -1.382888,-0.0564 -2.088443,-0.16933 -0.09878,0.39511 -0.197555,0.91722 -0.197555,1.48166 0,0.83256 0.183444,1.69334 0.691444,2.06022 0.09878,-0.635 0.409221,-1.56633 0.973665,-1.56633 0.183445,0 0.310445,0.0847 0.310445,0.35278 0,0.42333 -0.338667,0.889 -1.100666,2.11666 -0.564444,0.90312 -0.945444,1.56634 -1.058333,3.09034 0.437444,-0.0847 0.903111,-0.127 1.255888,-0.127 0.776111,0 1.509888,0.19755 2.187221,0.19755 0.832555,0 1.580443,-0.32455 1.580443,-1.73566 0,-0.97367 -0.352778,-1.49578 -0.931333,-1.778 0,0.59266 -0.211666,1.72155 -0.761999,1.72155 -0.239889,0 -0.409222,-0.21167 -0.409222,-0.635 0,-1.38289 1.749776,-3.14677 1.749776,-5.24933 z"
         style="font-family:'Heavy Heap';-inkscape-font-specification:'Heavy Heap';fill:#000000;fill-opacity:0.5"
         id="path982" />
      <path
         d="m 78.561399,119.75129 c 0,-1.18534 -0.64911,-1.59456 -1.777998,-1.59456 -0.649111,0 -1.326444,0.14111 -1.693332,0.49389 0.90311,0.67733 1.100666,1.82033 1.100666,2.93511 0,0.86078 -0.112889,1.96144 -0.112889,2.54 0,1.36878 0.663222,2.34244 1.679221,2.34244 1.114777,0 1.693332,-1.15711 1.693332,-2.30011 0,-0.53622 -0.112889,-0.95955 -0.409222,-1.24178 -0.141111,0.31045 -0.409222,1.12889 -0.804333,1.12889 -0.310444,0 -0.352777,-0.45155 -0.352777,-0.81844 0,-0.40922 0.05644,-1.07244 0.253999,-1.46756 1.213555,-0.0564 1.679221,-0.38099 1.679221,-1.25588 -0.409222,0.0423 -0.90311,0.16933 -1.354665,0.23989 0.04233,-0.32456 0.09878,-0.64912 0.09878,-1.00189 z"
         style="font-family:'Heavy Heap';-inkscape-font-specification:'Heavy Heap';fill:#000000;fill-opacity:0.5"
         id="path984" />
      <path
         d="m 79.676157,119.2574 c 0.719666,0.26811 1.015999,1.60866 1.015999,3.16089 0,1.45344 -0.268111,3.04799 -0.705555,3.90877 0.423333,-0.0423 0.931332,-0.0706 1.509888,-0.0706 0.550332,0 1.199443,0.0282 1.495776,0.0564 -0.366888,-0.62089 -0.536222,-1.05833 -0.536222,-2.30011 0,-1.07244 0.352778,-2.42711 0.352778,-3.45722 0,-1.00189 -0.338667,-1.73567 -1.636888,-1.73567 -0.564444,0 -1.072443,0.127 -1.495776,0.43745 z m 0.634999,-2.22955 c 0,0.60677 0.465666,1.05833 1.058333,1.05833 0.592666,0 1.072443,-0.45156 1.072443,-1.05833 0,-0.59267 -0.479777,-1.05834 -1.072443,-1.05834 -0.592667,0 -1.058333,0.46567 -1.058333,1.05834 z"
         style="font-family:'Heavy Heap';-inkscape-font-specification:'Heavy Heap';fill:#000000;fill-opacity:0.5"
         id="path986" />
      <path
         d="m 87.324373,118.08618 c -0.663222,0.31044 -1.072444,1.15711 -1.072444,1.83444 0,0.84667 0.649111,1.46756 0.649111,2.54 0,0.762 -0.324556,1.03011 -0.663222,1.74978 0.197555,-0.77612 0.225778,-1.38289 0.225778,-1.63689 0,-0.83256 -0.296333,-1.25589 -0.832555,-1.86267 -0.296333,-0.33866 -0.649111,-0.74789 -0.649111,-1.32644 0,-0.254 0.07056,-0.52211 0.197556,-0.80433 -0.07056,-0.0282 -0.127,-0.0423 -0.225778,-0.0423 -1.001888,0 -1.552221,1.29822 -1.552221,2.24367 0,0.73377 0.338666,1.66511 0.77611,2.32833 0.564444,0.86078 0.874889,1.35466 0.874889,1.98966 0,0.47978 -0.183445,0.81845 -0.409222,1.18534 0.493888,-0.0706 0.987777,-0.0847 1.495776,-0.0847 0.493889,0 0.987777,0 1.481666,0.0282 -0.211667,-0.45155 -0.324555,-0.87489 -0.324555,-1.25589 0,-1.39699 1.481665,-2.04611 1.481665,-3.8241 0,-1.80622 -1.53811,-1.62278 -1.53811,-2.65289 0,-0.0988 0.01411,-0.254 0.08467,-0.40922 z"
         style="font-family:'Heavy Heap';-inkscape-font-specification:'Heavy Heap';fill:#000000;fill-opacity:0.5"
         id="path988" />
      <path
         d="m 94.069477,123.20851 c -0.08467,0.35277 -0.239889,0.53622 -0.395111,0.53622 -0.197556,0 -0.395111,-0.29633 -0.395111,-0.94544 0,-0.64912 0.197555,-1.36878 0.197555,-1.96145 0,-1.143 -0.719666,-2.17311 -2.017887,-2.17311 -1.227666,0 -2.229554,0.889 -2.229554,2.61056 0,0.35277 0.05644,0.57855 0.127,0.84666 0.395111,-0.59266 1.044222,-1.25589 1.820332,-1.25589 0.324555,0 0.606777,0.11289 0.606777,0.43745 0,1.00189 -2.793997,0.84666 -2.793997,2.94922 0,1.08655 0.747888,2.10255 1.80622,2.10255 0.451556,0 0.945444,-0.18344 1.298222,-0.66322 0.225777,0.42333 0.578555,0.59267 0.931332,0.59267 0.790222,0 1.269999,-0.93134 1.269999,-1.94734 0,-0.39511 -0.07055,-0.77611 -0.225777,-1.12888 z m -3.245553,0.889 c 0,-0.36689 0.310444,-0.80434 1.03011,-1.28411 0,0.67733 -0.282222,1.59455 -0.762,1.59455 -0.183444,0 -0.26811,-0.127 -0.26811,-0.31044 z"
         style="font-family:'Heavy Heap';-inkscape-font-specification:'Heavy Heap';fill:#000000;fill-opacity:0.5"
         id="path990" />
      <path
         d="m 94.690377,116.29407 c 0.437444,0.56444 0.592666,2.06022 0.592666,3.73944 0,2.24366 -0.296333,4.79777 -0.663221,6.19477 0.634999,-0.0564 1.28411,-0.11289 1.876776,-0.11289 0.282222,0 0.493888,0.0141 0.747888,0.0282 -0.141111,-0.762 -0.169333,-1.79211 -0.169333,-2.42711 0,-2.76578 0.550333,-4.71311 0.550333,-6.05367 0,-1.29822 -0.522111,-1.77799 -1.481666,-1.77799 -0.564444,0 -0.959554,0.16933 -1.453443,0.40922 z"
         style="font-family:'Heavy Heap';-inkscape-font-specification:'Heavy Heap';fill:#000000;fill-opacity:0.5"
         id="path992" />
    </g>
    <g
       aria-label="esbjerg"
       id="text916"
       style="font-size:6.34516px;font-family:Roboto;-inkscape-font-specification:Roboto;fill:#000000;fill-opacity:0.4;stroke-width:0.449657;stroke-linecap:square;paint-order:stroke fill markers">
      <path
         d="m 62.053305,112.8365 c -0.985881,0 -1.465734,1.28252 -1.465734,2.42544 0,1.02078 0.383883,2.36437 1.526807,2.36437 0.732867,0 1.151648,-0.54092 1.151648,-1.28252 0,-0.24429 -0.05235,-0.45368 -0.174492,-0.58455 -0.02617,0.24429 -0.45368,0.6369 -0.811389,0.6369 -0.191941,0 -0.383883,-0.11342 -0.383883,-0.32281 0,-0.45368 0.828838,-0.75904 1.36104,-0.79394 0.01745,-0.11342 0.01745,-0.25301 0.01745,-0.38388 0,-0.5671 -0.157043,-2.05901 -1.221446,-2.05901 z m -0.253013,1.74492 c 0,-0.29663 0.0349,-0.64562 0.244289,-0.64562 0.165767,0 0.20939,0.22684 0.191941,0.58455 -0.130869,0.0698 -0.296636,0.18322 -0.427506,0.28791 -0.0087,-0.0611 -0.0087,-0.14832 -0.0087,-0.22684 z"
         style="font-size:8.72461px;fill:#000000;fill-opacity:0.4"
         id="path995" />
      <path
         d="m 65.112467,115.28733 c 0.145939,-0.16498 0.20939,-0.3363 0.20939,-0.48858 0,-0.39975 -0.399745,-0.68528 -0.862942,-0.68528 -0.475887,0 -0.888322,0.29822 -0.888322,0.86294 0,0.25381 0.08249,0.48224 0.190355,0.66625 0.203045,0.32994 0.577409,0.62182 0.577409,0.89466 0,0.12056 -0.07614,0.22208 -0.215735,0.22208 -0.171319,0 -0.348984,-0.15863 -0.40609,-0.5203 -0.18401,0.12056 -0.247461,0.31091 -0.247461,0.53299 0,0.52031 0.368019,0.86295 0.907357,0.86295 0.571065,0 0.9835,-0.37437 0.9835,-0.9835 0,-0.26016 -0.07614,-0.50127 -0.190355,-0.7297 -0.247461,-0.45685 -0.583754,-0.65989 -0.583754,-0.9137 0,-0.11421 0.0698,-0.16497 0.158629,-0.16497 0.1967,0 0.342638,0.27284 0.368019,0.44416 z"
         style="font-family:'Heavy Heap';-inkscape-font-specification:'Heavy Heap';fill:#000000;fill-opacity:0.4"
         id="path997" />
      <path
         d="m 66.50206,114.76068 c 0.05711,-0.28553 0.361674,-0.95178 0.361674,-1.34518 0,-0.44416 -0.374364,-0.55202 -0.666242,-0.55202 -0.272841,0 -0.545683,0.0952 -0.755074,0.22842 0.279187,0.24112 0.36802,0.60914 0.36802,1.01523 0,0.66624 -0.228426,1.52918 -0.228426,2.17004 0,0.90101 0.463197,1.34518 0.99619,1.34518 0.862942,0 1.243651,-1.21828 1.243651,-2.21447 0,-0.69162 -0.177664,-1.19289 -0.590099,-1.19289 -0.298223,0 -0.558375,0.27285 -0.729694,0.54569 z m -0.08249,1.42766 c 0,-0.38706 0.145939,-1.09771 0.412435,-1.09771 0.145939,0 0.18401,0.1967 0.18401,0.4505 0,0.50762 -0.171319,1.16751 -0.3934,1.16751 -0.133248,0 -0.203045,-0.2538 -0.203045,-0.5203 z"
         style="font-family:'Heavy Heap';-inkscape-font-specification:'Heavy Heap';fill:#000000;fill-opacity:0.4"
         id="path999" />
      <path
         d="m 68.570593,115.97895 c -0.463197,0 -0.729694,0.39974 -0.729694,0.86294 0,0.48223 0.285533,1.02157 0.97081,1.02157 0.824871,0 1.173854,-0.78045 1.173854,-1.99872 0,-0.94543 -0.20939,-1.6434 -0.920048,-1.6434 -0.272842,0 -0.558374,0.10152 -0.774109,0.33629 0.596445,0.0317 0.856596,1.17386 0.856596,1.68782 0,0.37436 -0.133248,0.59644 -0.380709,0.59644 -0.234771,0 -0.329949,-0.20304 -0.329949,-0.43782 0,-0.17766 0.05076,-0.29822 0.133249,-0.42512 z m -0.03173,-2.5571 c 0,0.31726 0.234771,0.47589 0.475887,0.47589 0.234771,0 0.475887,-0.15863 0.475887,-0.47589 0,-0.31091 -0.241116,-0.47589 -0.475887,-0.47589 -0.241116,0 -0.475887,0.15863 -0.475887,0.47589 z"
         style="font-family:'Heavy Heap';-inkscape-font-specification:'Heavy Heap';fill:#000000;fill-opacity:0.4"
         id="path1001" />
      <path
         d="m 71.305353,114.12616 c -0.717003,0 -1.065986,0.93274 -1.065986,1.76396 0,0.74238 0.279187,1.71954 1.110403,1.71954 0.532993,0 0.837561,-0.3934 0.837561,-0.93274 0,-0.17767 -0.03807,-0.32995 -0.126904,-0.42513 -0.01904,0.17767 -0.329948,0.4632 -0.590099,0.4632 -0.139594,0 -0.279187,-0.0825 -0.279187,-0.23477 0,-0.32995 0.60279,-0.55203 0.989845,-0.57741 0.01269,-0.0825 0.01269,-0.18401 0.01269,-0.27919 0,-0.41244 -0.114213,-1.49746 -0.888323,-1.49746 z m -0.184009,1.26903 c 0,-0.21573 0.02538,-0.46954 0.177664,-0.46954 0.120558,0 0.152284,0.16498 0.139594,0.42513 -0.09518,0.0508 -0.215736,0.13325 -0.310913,0.20939 -0.0063,-0.0444 -0.0063,-0.10787 -0.0063,-0.16498 z"
         style="font-family:'Heavy Heap';-inkscape-font-specification:'Heavy Heap';fill:#000000;fill-opacity:0.4"
         id="path1003" />
      <path
         d="m 73.34849,114.89393 c 0.0063,-0.0888 0.03173,-0.20305 0.03173,-0.31092 0,-0.26649 -0.171319,-0.41878 -0.40609,-0.41878 -0.298223,0 -0.602791,0.16498 -0.736039,0.36802 0.234771,0.0825 0.329948,0.35533 0.329948,1.36421 0,1.07868 -0.164974,1.36421 -0.285532,1.69416 0.272842,-0.0127 0.545684,-0.0317 0.850252,-0.0317 0.171319,0 0.355329,0.006 0.539338,0.0381 -0.22208,-0.46954 -0.310913,-0.88197 -0.310913,-1.22461 0,-0.72969 0.36802,-1.14848 0.609136,-1.14848 0.0698,0 0.133248,0.0381 0.133248,0.24112 0,0.14594 -0.03173,0.24746 -0.126903,0.44416 0.513958,-0.17766 0.710658,-0.62182 0.710658,-1.02157 0,-0.38705 -0.190355,-0.72335 -0.494923,-0.72335 -0.298222,0 -0.545683,0.15863 -0.843906,0.7297 z"
         style="font-family:'Heavy Heap';-inkscape-font-specification:'Heavy Heap';fill:#000000;fill-opacity:0.4"
         id="path1005" />
      <path
         d="m 75.975388,115.48403 c 0.336293,0.0698 0.742383,-0.0888 0.742383,-0.59645 0,-0.35533 -0.203045,-0.75507 -0.742383,-0.75507 -0.685278,0 -1.211926,0.63451 -1.211926,1.71319 0,1.09137 0.539339,1.75761 1.116748,1.75761 0.552029,0 0.989845,-0.58375 0.989845,-1.47208 0,-0.21573 -0.02538,-0.60913 -0.348984,-0.60913 -0.164974,0 -0.298222,0.10787 -0.475887,0.10787 -0.08883,0 -0.184009,-0.0317 -0.342638,-0.11422 -0.03173,0.0761 -0.04442,0.16498 -0.04442,0.24112 0,0.26015 0.158629,0.48858 0.437816,0.48858 0.04442,0 0.08249,-0.006 0.120558,-0.0127 -0.01269,0.43147 -0.114213,0.54568 -0.247462,0.54568 -0.23477,0 -0.387054,-0.34898 -0.387054,-0.97716 0,-0.64086 0.158629,-0.88197 0.329948,-0.88197 0.09518,0 0.152284,0.0635 0.152284,0.21573 0,0.10153 -0.02538,0.23477 -0.08883,0.34899 z"
         style="font-family:'Heavy Heap';-inkscape-font-specification:'Heavy Heap';fill:#000000;fill-opacity:0.4"
         id="path1007" />
    </g>
  </g>
</svg>
